<svg width="9" height="7" viewBox="0 0 9 7" fill="none" xmlns="http://www.w3.org/2000/svg">
<path d="M4.26897 6.2198L7.91507 0.907137C7.96612 0.832837 8.0009 0.738136 8.01499 0.635026C8.02908 0.531915 8.02186 0.42503 7.99424 0.327902C7.96662 0.230774 7.91984 0.147771 7.85983 0.0894005C7.79982 0.0310298 7.72927 -8.3587e-05 7.65711 -8.39522e-07L0.364898 1.16736e-07C0.292743 -8.26118e-05 0.222194 0.0310308 0.162181 0.0894015C0.102168 0.147772 0.0553908 0.230775 0.0277706 0.327903C0.000150455 0.425031 -0.00707051 0.531916 0.00702186 0.635027C0.0211142 0.738138 0.0558863 0.832838 0.106936 0.907138L3.75304 6.2198C3.78691 6.2692 3.82712 6.30838 3.87138 6.33512C3.91565 6.36186 3.96309 6.37562 4.01101 6.37562C4.05892 6.37562 4.10637 6.36186 4.15063 6.33512C4.19489 6.30838 4.23511 6.2692 4.26897 6.2198Z" fill="#2F2F2F"/>
</svg>
