<svg width="44" height="44" viewBox="0 0 44 44" fill="none" xmlns="http://www.w3.org/2000/svg">
<g clip-path="url(#clip0_120_2669)">
<path d="M21.9769 44C21.9769 44 35.7606 44 39.1796 42.68C41.1046 41.932 42.5524 39.776 43.0605 37.114C44 32.23 44 21.956 44 21.956C44 21.956 44 11.748 43.0605 6.908C42.5524 4.18 41.1046 2.068 39.1796 1.342C35.7606 0 21.9769 0 21.9769 0C21.9769 0 8.22401 0 4.82044 1.342C2.92615 2.068 1.44767 4.18 0.908645 6.908C0 11.748 0 21.956 0 21.956C0 21.956 0 32.23 0.908645 37.114C1.44767 39.776 2.92615 41.932 4.82044 42.68C8.22401 44 21.9769 44 21.9769 44Z" fill="#42565A"/>
<path d="M28.8266 21.9999L17.4473 12.6499V31.3499L28.8266 21.9999Z" fill="white"/>
</g>
<defs>
<clipPath id="clip0_120_2669">
<rect width="44" height="44" fill="white"/>
</clipPath>
</defs>
</svg>
