<svg width="20" height="20" viewBox="0 0 20 20" fill="none" xmlns="http://www.w3.org/2000/svg">
<path d="M5.83366 9.16667H5.00033C2.24255 9.16667 1.66699 9.74226 1.66699 12.5V15C1.66699 17.7578 2.24255 18.3333 5.00033 18.3333H15.0003C17.7581 18.3333 18.3337 17.7578 18.3337 15V12.5C18.3337 10.6574 18.0767 9.78901 17.0837 9.41559" stroke="#2F2F2F" stroke-width="1.5" stroke-linecap="round" stroke-linejoin="round"/>
<path d="M10 15H15" stroke="#2F2F2F" stroke-width="1.5" stroke-linecap="round" stroke-linejoin="round"/>
<path d="M14.3698 2.61076C14.7424 2.20649 14.9288 2.00436 15.1267 1.88646C15.6043 1.60196 16.1926 1.59311 16.6782 1.86311C16.8794 1.97501 17.0715 2.17146 17.4555 2.56435C17.8396 2.95724 18.0316 3.15368 18.141 3.35958C18.4049 3.8564 18.3963 4.4581 18.1182 4.94676C18.0029 5.14928 17.8053 5.33986 17.4102 5.72103L12.7083 10.2563C11.4627 11.4578 10.6911 11.7069 8.96568 11.6618C8.65243 11.6535 8.49585 11.6494 8.40485 11.5459C8.31376 11.4425 8.3262 11.2828 8.35101 10.9632C8.46568 9.49009 8.72518 8.73534 9.72776 7.64756L14.3698 2.61076Z" stroke="#2F2F2F" stroke-width="1.5" stroke-linecap="round" stroke-linejoin="round"/>
</svg>
