<svg width="18" height="18" viewBox="0 0 18 18" fill="none" xmlns="http://www.w3.org/2000/svg">
<path d="M2.25 5.62501C2.25 5.47582 2.30926 5.33275 2.41475 5.22726C2.52024 5.12177 2.66332 5.06251 2.8125 5.06251H5.42602C5.54726 4.65636 5.79634 4.30019 6.13622 4.04695C6.47611 3.79371 6.88865 3.65692 7.3125 3.65692C7.73635 3.65692 8.14889 3.79371 8.48878 4.04695C8.82866 4.30019 9.07774 4.65636 9.19898 5.06251H15.1875C15.3367 5.06251 15.4798 5.12177 15.5852 5.22726C15.6907 5.33275 15.75 5.47582 15.75 5.62501C15.75 5.77419 15.6907 5.91727 15.5852 6.02275C15.4798 6.12824 15.3367 6.18751 15.1875 6.18751H9.19898C9.07774 6.59365 8.82866 6.94982 8.48878 7.20306C8.14889 7.4563 7.73635 7.59309 7.3125 7.59309C6.88865 7.59309 6.47611 7.4563 6.13622 7.20306C5.79634 6.94982 5.54726 6.59365 5.42602 6.18751H2.8125C2.66332 6.18751 2.52024 6.12824 2.41475 6.02275C2.30926 5.91727 2.25 5.77419 2.25 5.62501ZM15.1875 11.8125H13.699C13.5777 11.4064 13.3287 11.0502 12.9888 10.797C12.6489 10.5437 12.2364 10.4069 11.8125 10.4069C11.3886 10.4069 10.9761 10.5437 10.6362 10.797C10.2963 11.0502 10.0473 11.4064 9.92602 11.8125H2.8125C2.66332 11.8125 2.52024 11.8718 2.41475 11.9773C2.30926 12.0827 2.25 12.2258 2.25 12.375C2.25 12.5242 2.30926 12.6673 2.41475 12.7728C2.52024 12.8782 2.66332 12.9375 2.8125 12.9375H9.92602C10.0473 13.3436 10.2963 13.6998 10.6362 13.9531C10.9761 14.2063 11.3886 14.3431 11.8125 14.3431C12.2364 14.3431 12.6489 14.2063 12.9888 13.9531C13.3287 13.6998 13.5777 13.3436 13.699 12.9375H15.1875C15.3367 12.9375 15.4798 12.8782 15.5852 12.7728C15.6907 12.6673 15.75 12.5242 15.75 12.375C15.75 12.2258 15.6907 12.0827 15.5852 11.9773C15.4798 11.8718 15.3367 11.8125 15.1875 11.8125Z" fill="#2F2F2F"/>
</svg>
