<svg width="25" height="29" viewBox="0 0 25 29" fill="none" xmlns="http://www.w3.org/2000/svg">
<path d="M19 25.5H14.3631C15.142 24.8045 15.8766 24.0608 16.5625 23.2734C19.1359 20.3138 20.5 17.1938 20.5 14.25C20.5 12.062 19.6308 9.96354 18.0836 8.41637C16.5365 6.86919 14.438 6 12.25 6C10.062 6 7.96354 6.86919 6.41637 8.41637C4.86919 9.96354 4 12.062 4 14.25C4 17.1938 5.36031 20.3138 7.9375 23.2734C8.62338 24.0608 9.35795 24.8045 10.1369 25.5H5.5C5.30109 25.5 5.11032 25.579 4.96967 25.7197C4.82902 25.8603 4.75 26.0511 4.75 26.25C4.75 26.4489 4.82902 26.6397 4.96967 26.7803C5.11032 26.921 5.30109 27 5.5 27H19C19.1989 27 19.3897 26.921 19.5303 26.7803C19.671 26.6397 19.75 26.4489 19.75 26.25C19.75 26.0511 19.671 25.8603 19.5303 25.7197C19.3897 25.579 19.1989 25.5 19 25.5ZM5.5 14.25C5.5 12.4598 6.21116 10.7429 7.47703 9.47703C8.7429 8.21116 10.4598 7.5 12.25 7.5C14.0402 7.5 15.7571 8.21116 17.023 9.47703C18.2888 10.7429 19 12.4598 19 14.25C19 19.6153 13.7997 24.0938 12.25 25.3125C10.7003 24.0938 5.5 19.6153 5.5 14.25ZM16 14.25C16 13.5083 15.7801 12.7833 15.368 12.1666C14.956 11.5499 14.3703 11.0693 13.6851 10.7855C12.9998 10.5016 12.2458 10.4274 11.5184 10.5721C10.791 10.7167 10.1228 11.0739 9.59835 11.5983C9.0739 12.1228 8.71675 12.791 8.57205 13.5184C8.42736 14.2458 8.50162 14.9998 8.78545 15.6851C9.06928 16.3703 9.54993 16.956 10.1666 17.368C10.7833 17.7801 11.5083 18 12.25 18C13.2446 18 14.1984 17.6049 14.9017 16.9017C15.6049 16.1984 16 15.2446 16 14.25ZM10 14.25C10 13.805 10.132 13.37 10.3792 13C10.6264 12.63 10.9778 12.3416 11.389 12.1713C11.8001 12.001 12.2525 11.9564 12.689 12.0432C13.1254 12.13 13.5263 12.3443 13.841 12.659C14.1557 12.9737 14.37 13.3746 14.4568 13.811C14.5436 14.2475 14.499 14.6999 14.3287 15.111C14.1584 15.5222 13.87 15.8736 13.5 16.1208C13.13 16.368 12.695 16.5 12.25 16.5C11.6533 16.5 11.081 16.2629 10.659 15.841C10.2371 15.419 10 14.8467 10 14.25Z" fill="black"/>
</svg>
