<svg width="20" height="20" viewBox="0 0 20 20" fill="none" xmlns="http://www.w3.org/2000/svg">
<path d="M1.68066 11.25C3.51364 11.25 4.99956 12.7359 4.99956 14.5689" stroke="#2F2F2F" stroke-width="1.5" stroke-linecap="round" stroke-linejoin="round"/>
<path d="M15 14.5689V14.4923C15 12.7017 16.4517 11.25 18.2423 11.25" stroke="#2F2F2F" stroke-width="1.5" stroke-linecap="round" stroke-linejoin="round"/>
<path d="M4.99956 2.92969C4.99956 4.76267 3.51364 6.24859 1.68066 6.24859" stroke="#2F2F2F" stroke-width="1.5" stroke-linecap="round" stroke-linejoin="round"/>
<path d="M15 2.92969C15 4.74662 16.4742 6.22255 18.2853 6.24825" stroke="#2F2F2F" stroke-width="1.5" stroke-linecap="round" stroke-linejoin="round"/>
<path d="M13.3337 2.91667H6.66699C4.30997 2.91667 3.13146 2.91667 2.39923 3.64891C1.66699 4.38114 1.66699 5.55965 1.66699 7.91667V9.58334C1.66699 11.9403 1.66699 13.1188 2.39923 13.8511C3.13146 14.5833 4.30997 14.5833 6.66699 14.5833H13.3337C15.6907 14.5833 16.8692 14.5833 17.6014 13.8511C18.3337 13.1188 18.3337 11.9403 18.3337 9.58334V7.91667C18.3337 5.55965 18.3337 4.38114 17.6014 3.64891C16.8692 2.91667 15.6907 2.91667 13.3337 2.91667Z" stroke="#2F2F2F" stroke-width="1.5" stroke-linecap="round" stroke-linejoin="round"/>
<path d="M4.16699 17.0833H15.8337" stroke="#2F2F2F" stroke-width="1.5" stroke-linecap="round" stroke-linejoin="round"/>
<path d="M12.5 8.75C12.5 10.1307 11.3807 11.25 10 11.25C8.61925 11.25 7.5 10.1307 7.5 8.75C7.5 7.36929 8.61925 6.25 10 6.25C11.3807 6.25 12.5 7.36929 12.5 8.75Z" stroke="#2F2F2F" stroke-width="1.5" stroke-linecap="round" stroke-linejoin="round"/>
</svg>
