<svg width="20" height="20" viewBox="0 0 20 20" fill="none" xmlns="http://www.w3.org/2000/svg">
<path d="M5.625 2.5C3.23529 2.5 2.5 3.23529 2.5 5.625C2.5 8.01471 3.23529 8.75 5.625 8.75C8.01471 8.75 8.75 8.01471 8.75 5.625C8.75 3.23529 8.01471 2.5 5.625 2.5Z" stroke="#313131" stroke-linecap="round" stroke-linejoin="round"/>
<path d="M5.625 11.25C3.23529 11.25 2.5 11.9853 2.5 14.375C2.5 16.7647 3.23529 17.5 5.625 17.5C8.01471 17.5 8.75 16.7647 8.75 14.375C8.75 11.9853 8.01471 11.25 5.625 11.25Z" stroke="#313131" stroke-linecap="round" stroke-linejoin="round"/>
<path d="M14.375 11.25C11.9853 11.25 11.25 11.9853 11.25 14.375C11.25 16.7647 11.9853 17.5 14.375 17.5C16.7647 17.5 17.5 16.7647 17.5 14.375C17.5 11.9853 16.7647 11.25 14.375 11.25Z" stroke="#313131" stroke-linecap="round" stroke-linejoin="round"/>
<path d="M14.375 2.5C11.9853 2.5 11.25 3.23529 11.25 5.625C11.25 8.01471 11.9853 8.75 14.375 8.75C16.7647 8.75 17.5 8.01471 17.5 5.625C17.5 3.23529 16.7647 2.5 14.375 2.5Z" stroke="#313131" stroke-linecap="round" stroke-linejoin="round"/>
</svg>
