<svg width="26" height="26" viewBox="0 0 26 26" fill="none" xmlns="http://www.w3.org/2000/svg">
<path d="M10.5625 21.9375C10.5625 22.2589 10.4672 22.5731 10.2886 22.8403C10.1101 23.1075 9.85629 23.3158 9.55936 23.4388C9.26243 23.5618 8.9357 23.594 8.62048 23.5313C8.30526 23.4686 8.01571 23.3138 7.78845 23.0865C7.56119 22.8593 7.40642 22.5697 7.34372 22.2545C7.28102 21.9393 7.3132 21.6126 7.43619 21.3156C7.55919 21.0187 7.76747 20.7649 8.0347 20.5864C8.30193 20.4078 8.6161 20.3125 8.9375 20.3125C9.36848 20.3125 9.7818 20.4837 10.0865 20.7885C10.3913 21.0932 10.5625 21.5065 10.5625 21.9375ZM19.5 20.3125C19.1786 20.3125 18.8644 20.4078 18.5972 20.5864C18.33 20.7649 18.1217 21.0187 17.9987 21.3156C17.8757 21.6126 17.8435 21.9393 17.9062 22.2545C17.9689 22.5697 18.1237 22.8593 18.351 23.0865C18.5782 23.3138 18.8678 23.4686 19.183 23.5313C19.4982 23.594 19.8249 23.5618 20.1219 23.4388C20.4188 23.3158 20.6726 23.1075 20.8511 22.8403C21.0297 22.5731 21.125 22.2589 21.125 21.9375C21.125 21.5065 20.9538 21.0932 20.649 20.7885C20.3443 20.4837 19.931 20.3125 19.5 20.3125ZM24.3455 7.52984L21.7415 16.902C21.5983 17.414 21.2921 17.8653 20.8693 18.1875C20.4464 18.5097 19.93 18.6853 19.3984 18.6875H9.36C8.82683 18.6873 8.30837 18.5126 7.88369 18.1903C7.459 17.8679 7.15141 17.4155 7.00781 16.902L3.445 4.0625H1.625C1.40951 4.0625 1.20285 3.9769 1.05048 3.82452C0.898102 3.67215 0.8125 3.46549 0.8125 3.25C0.8125 3.03451 0.898102 2.82785 1.05048 2.67548C1.20285 2.5231 1.40951 2.4375 1.625 2.4375H4.0625C4.24013 2.43747 4.41288 2.49565 4.55431 2.60313C4.69573 2.71062 4.79803 2.8615 4.84555 3.03266L5.80836 6.5H23.5625C23.6878 6.49998 23.8113 6.52891 23.9235 6.58455C24.0358 6.64019 24.1336 6.72102 24.2094 6.82072C24.2852 6.92043 24.337 7.03632 24.3606 7.15933C24.3842 7.28235 24.3791 7.40915 24.3455 7.52984ZM22.493 8.125H6.26031L8.57695 16.4673C8.62447 16.6385 8.72677 16.7894 8.86819 16.8969C9.00961 17.0044 9.18237 17.0625 9.36 17.0625H19.3984C19.5761 17.0625 19.7488 17.0044 19.8902 16.8969C20.0317 16.7894 20.134 16.6385 20.1815 16.4673L22.493 8.125Z" fill="#2F2F2F"/>
</svg>
