<svg width="20" height="20" viewBox="0 0 20 20" fill="none" xmlns="http://www.w3.org/2000/svg">
<path d="M1.66699 9.99999C1.66699 7.05209 1.66699 5.57814 2.54433 4.59408C2.68465 4.43669 2.83931 4.29112 3.00654 4.15905C4.0521 3.33333 5.61818 3.33333 8.75033 3.33333H11.2503C14.3825 3.33333 15.9486 3.33333 16.9941 4.15905C17.1613 4.29112 17.316 4.43669 17.4563 4.59408C18.3337 5.57814 18.3337 7.05209 18.3337 9.99999C18.3337 12.9479 18.3337 14.4218 17.4563 15.4059C17.316 15.5633 17.1613 15.7088 16.9941 15.8409C15.9486 16.6667 14.3825 16.6667 11.2503 16.6667H8.75033C5.61818 16.6667 4.0521 16.6667 3.00654 15.8409C2.83931 15.7088 2.68465 15.5633 2.54433 15.4059C1.66699 14.4218 1.66699 12.9479 1.66699 9.99999Z" stroke="#2F2F2F" stroke-width="1.5" stroke-linecap="round" stroke-linejoin="round"/>
<path d="M8.33301 13.3333H9.58301" stroke="#2F2F2F" stroke-width="1.5" stroke-miterlimit="10" stroke-linecap="round" stroke-linejoin="round"/>
<path d="M12.083 13.3333H14.9997" stroke="#2F2F2F" stroke-width="1.5" stroke-miterlimit="10" stroke-linecap="round" stroke-linejoin="round"/>
<path d="M1.66699 7.5H18.3337" stroke="#2F2F2F" stroke-width="1.5" stroke-linecap="round" stroke-linejoin="round"/>
</svg>
