<svg width="26" height="26" viewBox="0 0 26 26" fill="none" xmlns="http://www.w3.org/2000/svg">
<path d="M22.5845 16.0936L17.7999 13.9496L17.7866 13.9435C17.5383 13.8373 17.2673 13.7946 16.9983 13.8194C16.7293 13.8443 16.4707 13.9358 16.2459 14.0857C16.2195 14.1032 16.1941 14.1221 16.1698 14.1426L13.6977 16.25C12.1316 15.4893 10.5148 13.8846 9.75407 12.3388L11.8645 9.8292C11.8849 9.80381 11.9041 9.77842 11.9224 9.75099C12.0691 9.52685 12.1581 9.26991 12.1815 9.00306C12.2049 8.73621 12.1619 8.46771 12.0565 8.22146V8.20927L9.90641 3.41654C9.76701 3.09486 9.52731 2.82688 9.22309 2.65263C8.91887 2.47837 8.56645 2.40717 8.21845 2.44967C6.84224 2.63076 5.57902 3.30662 4.66471 4.35101C3.75039 5.39541 3.24752 6.73691 3.25001 8.12498C3.25001 16.189 9.81095 22.75 17.875 22.75C19.2631 22.7525 20.6046 22.2496 21.649 21.3353C22.6934 20.421 23.3692 19.1577 23.5503 17.7815C23.5929 17.4337 23.5218 17.0813 23.3478 16.7771C23.1737 16.4729 22.906 16.2331 22.5845 16.0936ZM17.875 21.125C14.4283 21.1212 11.1239 19.7504 8.68678 17.3132C6.24962 14.876 4.87877 11.5716 4.87501 8.12498C4.87119 7.13321 5.2285 6.17396 5.88021 5.42637C6.53192 4.67878 7.43347 4.19397 8.41649 4.06248C8.41609 4.06653 8.41609 4.07061 8.41649 4.07466L10.5493 8.8481L8.45001 11.3608C8.4287 11.3853 8.40935 11.4114 8.39212 11.439C8.23928 11.6735 8.14962 11.9435 8.13183 12.2229C8.11403 12.5022 8.16871 12.7815 8.29056 13.0335C9.21071 14.9154 11.1069 16.7974 13.0091 17.7165C13.263 17.8372 13.5439 17.89 13.8242 17.8697C14.1046 17.8494 14.3749 17.7568 14.6088 17.6008C14.6348 17.5832 14.6599 17.5642 14.6839 17.5439L17.1529 15.4375L21.9263 17.5754C21.9263 17.5754 21.9345 17.5754 21.9375 17.5754C21.8076 18.5598 21.3235 19.4631 20.5758 20.1165C19.8281 20.7698 18.8679 21.1283 17.875 21.125Z" fill="#2F2F2F"/>
</svg>
