<svg width="26" height="26" viewBox="0 0 26 26" fill="none" xmlns="http://www.w3.org/2000/svg">
<path d="M23.4532 21.5316C21.9064 18.8574 19.5228 16.9399 16.741 16.0309C18.117 15.2118 19.186 13.9636 19.784 12.4781C20.382 10.9925 20.4757 9.35179 20.051 7.80779C19.6262 6.26379 18.7063 4.90192 17.4326 3.93132C16.1589 2.96072 14.6018 2.43506 13.0004 2.43506C11.3991 2.43506 9.84197 2.96072 8.56827 3.93132C7.29457 4.90192 6.37469 6.26379 5.9499 7.80779C5.52511 9.35179 5.61889 10.9925 6.21685 12.4781C6.81481 13.9636 7.88388 15.2118 9.25988 16.0309C6.47808 16.9389 4.09441 18.8564 2.54762 21.5316C2.49089 21.6241 2.45327 21.727 2.43696 21.8342C2.42066 21.9415 2.426 22.051 2.45268 22.1561C2.47936 22.2613 2.52683 22.3601 2.59229 22.4466C2.65776 22.5331 2.73989 22.6056 2.83384 22.6599C2.9278 22.7142 3.03167 22.7491 3.13933 22.7626C3.24699 22.776 3.35625 22.7678 3.46068 22.7384C3.56511 22.7089 3.66259 22.6589 3.74736 22.5912C3.83213 22.5234 3.90248 22.4394 3.95426 22.3441C5.86769 19.0372 9.24972 17.0628 13.0004 17.0628C16.7511 17.0628 20.1332 19.0372 22.0466 22.3441C22.0984 22.4394 22.1687 22.5234 22.2535 22.5912C22.3383 22.6589 22.4357 22.7089 22.5402 22.7384C22.6446 22.7678 22.7539 22.776 22.8615 22.7626C22.9692 22.7491 23.0731 22.7142 23.167 22.6599C23.261 22.6056 23.3431 22.5331 23.4086 22.4466C23.474 22.3601 23.5215 22.2613 23.5482 22.1561C23.5749 22.051 23.5802 21.9415 23.5639 21.8342C23.5476 21.727 23.51 21.6241 23.4532 21.5316ZM7.31293 9.75032C7.31293 8.62544 7.64649 7.52582 8.27144 6.59052C8.89639 5.65521 9.78466 4.92623 10.8239 4.49576C11.8632 4.06528 13.0067 3.95265 14.11 4.1721C15.2133 4.39156 16.2267 4.93324 17.0221 5.72865C17.8175 6.52406 18.3592 7.53748 18.5786 8.64074C18.7981 9.74401 18.6855 10.8876 18.255 11.9268C17.8245 12.9661 17.0955 13.8544 16.1602 14.4793C15.2249 15.1043 14.1253 15.4378 13.0004 15.4378C11.4925 15.4362 10.0468 14.8365 8.98054 13.7702C7.91428 12.7039 7.31454 11.2582 7.31293 9.75032Z" fill="#313131"/>
</svg>
