<svg width="20" height="20" viewBox="0 0 20 20" fill="none" xmlns="http://www.w3.org/2000/svg">
<path d="M16.9446 16.1975L13.6341 12.8876C14.5936 11.7356 15.0721 10.2581 14.97 8.76228C14.8678 7.2665 14.193 5.86768 13.0858 4.8568C11.9786 3.84592 10.5243 3.30082 9.02539 3.33488C7.52652 3.36894 6.09848 3.97956 5.03835 5.03969C3.97821 6.09983 3.3676 7.52786 3.33354 9.02674C3.29947 10.5256 3.84458 11.9799 4.85546 13.0871C5.86634 14.1943 7.26516 14.8692 8.76094 14.9713C10.2567 15.0734 11.7343 14.5949 12.8863 13.6354L16.1962 16.946C16.2453 16.9951 16.3037 17.0341 16.3679 17.0607C16.4321 17.0873 16.5009 17.101 16.5704 17.101C16.6399 17.101 16.7087 17.0873 16.7729 17.0607C16.8371 17.0341 16.8955 16.9951 16.9446 16.946C16.9938 16.8968 17.0328 16.8385 17.0594 16.7743C17.086 16.7101 17.0996 16.6412 17.0996 16.5717C17.0996 16.5022 17.086 16.4334 17.0594 16.3692C17.0328 16.305 16.9938 16.2467 16.9446 16.1975ZM4.40455 9.16644C4.40455 8.22489 4.68375 7.30449 5.20684 6.52162C5.72994 5.73875 6.47344 5.12858 7.34331 4.76826C8.21319 4.40795 9.17038 4.31367 10.0938 4.49736C11.0173 4.68105 11.8655 5.13445 12.5313 5.80022C13.1971 6.466 13.6505 7.31425 13.8342 8.2377C14.0179 9.16116 13.9236 10.1183 13.5633 10.9882C13.203 11.8581 12.5928 12.6016 11.8099 13.1247C11.0271 13.6478 10.1066 13.927 9.1651 13.927C7.90295 13.9256 6.6929 13.4236 5.80043 12.5311C4.90795 11.6386 4.40595 10.4286 4.40455 9.16644Z" fill="#313131"/>
</svg>
