<svg width="20" height="20" viewBox="0 0 20 20" fill="none" xmlns="http://www.w3.org/2000/svg">
<path d="M9.9974 9.58337C10.4576 9.58337 10.8307 9.95646 10.8307 10.4167C10.8307 10.877 10.4576 11.25 9.9974 11.25C9.53715 11.25 9.16406 10.877 9.16406 10.4167C9.16406 9.95646 9.53715 9.58337 9.9974 9.58337Z" stroke="#262626" stroke-width="1.5" stroke-linecap="round" stroke-linejoin="round"/>
<path d="M9.9974 4.58337C10.4576 4.58337 10.8307 4.95647 10.8307 5.41671C10.8307 5.87694 10.4576 6.25004 9.9974 6.25004C9.53715 6.25004 9.16406 5.87694 9.16406 5.41671C9.16406 4.95647 9.53715 4.58337 9.9974 4.58337Z" stroke="#262626" stroke-width="1.5" stroke-linecap="round" stroke-linejoin="round"/>
<path d="M9.9974 14.5834C10.4576 14.5834 10.8307 14.9565 10.8307 15.4167C10.8307 15.877 10.4576 16.25 9.9974 16.25C9.53715 16.25 9.16406 15.877 9.16406 15.4167C9.16406 14.9565 9.53715 14.5834 9.9974 14.5834Z" stroke="#262626" stroke-width="1.5" stroke-linecap="round" stroke-linejoin="round"/>
</svg>
