<svg width="17" height="17" viewBox="0 0 17 17" fill="none" xmlns="http://www.w3.org/2000/svg">
<path d="M16.3351 15.437L12.3624 11.4651C13.5139 10.0827 14.0881 8.30962 13.9655 6.51469C13.843 4.71976 13.0331 3.04117 11.7045 1.82811C10.3758 0.615056 8.63068 -0.0390705 6.83204 0.00180664C5.03339 0.0426838 3.31974 0.775418 2.04758 2.04758C0.775418 3.31974 0.0426838 5.03339 0.00180664 6.83204C-0.0390705 8.63068 0.615056 10.3758 1.82811 11.7045C3.04117 13.0331 4.71976 13.843 6.51469 13.9655C8.30962 14.0881 10.0827 13.5139 11.4651 12.3624L15.437 16.3351C15.4959 16.3941 15.566 16.4409 15.643 16.4728C15.7201 16.5047 15.8026 16.5211 15.886 16.5211C15.9694 16.5211 16.052 16.5047 16.1291 16.4728C16.2061 16.4409 16.2762 16.3941 16.3351 16.3351C16.3941 16.2762 16.4409 16.2061 16.4728 16.1291C16.5047 16.052 16.5211 15.9694 16.5211 15.886C16.5211 15.8026 16.5047 15.7201 16.4728 15.643C16.4409 15.566 16.3941 15.4959 16.3351 15.437ZM1.28702 6.99968C1.28702 5.86982 1.62206 4.76534 2.24978 3.8259C2.87749 2.88645 3.76969 2.15425 4.81354 1.72187C5.85739 1.28949 7.00602 1.17636 8.11417 1.39679C9.22231 1.61721 10.2402 2.16129 11.0391 2.96022C11.8381 3.75915 12.3822 4.77705 12.6026 5.8852C12.823 6.99334 12.7099 8.14197 12.2775 9.18582C11.8451 10.2297 11.1129 11.1219 10.1735 11.7496C9.23402 12.3773 8.12954 12.7123 6.99968 12.7123C5.4851 12.7107 4.03304 12.1083 2.96207 11.0373C1.89111 9.96632 1.2887 8.51426 1.28702 6.99968Z" fill="#2F2F2F" fill-opacity="0.5"/>
</svg>
