<svg width="70" height="70" viewBox="0 0 70 70" fill="none" xmlns="http://www.w3.org/2000/svg">
<path d="M8.75 46.6667L21.7865 33.6301C22.7769 32.6399 24.1202 32.0834 25.5208 32.0834C26.9215 32.0834 28.2647 32.6399 29.255 33.6301L40.8333 45.2084M40.8333 45.2084L45.2083 49.5834M40.8333 45.2084L46.5783 39.4634C47.5685 38.4732 48.9119 37.9167 50.3125 37.9167C51.7131 37.9167 53.0565 38.4732 54.0467 39.4634L61.25 46.6667" stroke="#313131" stroke-opacity="0.5" stroke-width="2.5" stroke-linecap="round" stroke-linejoin="round"/>
<path d="M62.7077 34.9998C62.7077 47.3365 62.7077 53.5049 59.2135 57.5958C58.7174 58.1768 58.1764 58.7179 57.5954 59.214C53.5044 62.7082 47.336 62.7082 34.9993 62.7082C22.6626 62.7082 16.4943 62.7082 12.4032 59.214C11.8223 58.7179 11.2812 58.1768 10.7851 57.5958C7.29102 53.5049 7.29102 47.3365 7.29102 34.9998C7.29102 22.6631 7.29102 16.4948 10.7851 12.4037C11.2812 11.8228 11.8223 11.2817 12.4032 10.7856C16.4943 7.2915 22.6626 7.2915 34.9993 7.2915H39.3743" stroke="#313131" stroke-opacity="0.5" stroke-width="2.5" stroke-linecap="round" stroke-linejoin="round"/>
<path d="M62.709 18.9582C60.9887 20.7281 56.4099 27.7082 53.959 27.7082C51.5081 27.7082 46.9292 20.7281 45.209 18.9582M53.959 26.2498V7.2915" stroke="#313131" stroke-opacity="0.5" stroke-width="2.5" stroke-linecap="round" stroke-linejoin="round"/>
</svg>
