<svg width="14" height="12" viewBox="0 0 14 12" fill="none" xmlns="http://www.w3.org/2000/svg">
<path d="M6.78894 9.19862L3.81285 6.22252C3.77118 6.1809 3.7428 6.12785 3.7313 6.07009C3.71979 6.01233 3.72569 5.95245 3.74823 5.89804C3.77078 5.84363 3.80896 5.79714 3.85794 5.76444C3.90693 5.73174 3.96451 5.71431 4.02341 5.71436L9.97559 5.71436C10.0345 5.71431 10.0921 5.73174 10.1411 5.76444C10.19 5.79714 10.2282 5.84363 10.2508 5.89804C10.2733 5.95245 10.2792 6.01233 10.2677 6.07009C10.2562 6.12785 10.2278 6.1809 10.1862 6.22252L7.21006 9.19862C7.18242 9.22629 7.1496 9.24824 7.11347 9.26322C7.07734 9.27819 7.03861 9.2859 6.9995 9.2859C6.96039 9.2859 6.92166 9.27819 6.88553 9.26322C6.8494 9.24824 6.81658 9.22629 6.78894 9.19862Z" fill="#2F2F2F"/>
</svg>
