<svg width="44" height="44" viewBox="0 0 44 44" fill="none" xmlns="http://www.w3.org/2000/svg">
<g clip-path="url(#clip0_120_2673)">
<path d="M21.1019 44.0173H22.9367C32.9115 44.0173 37.8791 44.0173 40.9591 40.9373C44.0215 37.8573 44.0215 32.8721 44.0215 22.9325V21.0625C44.0215 11.1625 44.0215 6.17733 40.9591 3.09733C37.8791 0.017334 32.8939 0.017334 22.9367 0.017334H21.1019C11.1271 0.017334 6.15948 0.017334 3.07948 3.09733C0.0214844 6.17733 0.0214844 11.1669 0.0214844 21.1021V22.9721C0.0214844 32.8721 0.0214844 37.8573 3.10148 40.9373C6.18148 44.0173 11.1667 44.0173 21.1019 44.0173Z" fill="#42565A"/>
<path d="M23.4344 31.7151C13.4068 31.7151 7.68682 24.8423 7.44922 13.4023H12.474C12.6412 21.7975 16.3416 25.3571 19.2764 26.0875V13.4023H24.0064V20.6447C26.9016 20.3323 29.9464 17.0323 30.9716 13.4023H35.7016C34.9184 17.2083 32.5864 20.5171 29.2644 22.5323C32.9736 24.3759 35.7148 27.7199 36.7972 31.7151H31.592C30.6108 28.2039 27.6188 25.6255 24.002 25.1679V31.7151H23.4344Z" fill="white"/>
</g>
<defs>
<clipPath id="clip0_120_2673">
<rect width="44" height="44" fill="white"/>
</clipPath>
</defs>
</svg>
