<svg width="53" height="44" viewBox="0 0 53 44" fill="none" xmlns="http://www.w3.org/2000/svg">
<g clip-path="url(#clip0_120_2676)">
<path d="M27.827 44C15.7461 44 5.92578 34.1723 5.92578 22.037C5.92578 9.90158 15.7461 0 27.827 0C39.908 0 49.7283 9.90158 49.7283 22.0422C49.7283 34.1776 39.908 44 27.827 44Z" fill="#42565A"/>
<path d="M24.4352 2.97803L0 41.2747H11.203L25.3184 19.2008L24.9714 19.0424L21.0601 34.8374L29.3454 36.3054L37.8619 25.5536L37.3993 25.3213L34.5237 37.5306L52.5767 34.0769L48.8914 27.9881L42.3831 29.4826L43.1506 30.3698L46.1787 17.6165L39.1184 12.8743L29.8816 24.5503L30.339 24.7826L34.1346 9.48403L24.4352 2.97803Z" fill="white"/>
<path d="M24.4352 2.97803L0 41.2747H11.203L25.3184 19.2008L24.9714 19.0424L21.0601 34.8374L29.3454 36.3054L37.8619 25.5536L37.3993 25.3213L34.5237 37.5306L41.7785 36.1417L46.184 17.6113L39.1237 12.8691L29.8816 24.5503L30.339 24.7826L34.1346 9.48403L24.4352 2.97803Z" fill="white"/>
</g>
<defs>
<clipPath id="clip0_120_2676">
<rect width="52.5714" height="44" fill="white"/>
</clipPath>
</defs>
</svg>
