<svg width="44" height="43" viewBox="0 0 44 43" fill="none" xmlns="http://www.w3.org/2000/svg">
<g clip-path="url(#clip0_120_2680)">
<mask id="mask0_120_2680" style="mask-type:luminance" maskUnits="userSpaceOnUse" x="0" y="-2" width="45" height="45">
<path d="M44.0432 -1.13477H0V42.9084H44.0432V-1.13477Z" fill="white"/>
</mask>
<g mask="url(#mask0_120_2680)">
<path fill-rule="evenodd" clip-rule="evenodd" d="M0 19.8047C0 9.9338 0 4.99916 3.06672 1.93244C6.13343 -1.13428 11.0681 -1.13428 20.939 -1.13428H23.1042C32.9751 -1.13428 37.9097 -1.13428 40.9765 1.93244C44.0432 4.99916 44.0432 9.9338 44.0432 19.8047V21.9699C44.0432 31.8408 44.0432 36.7755 40.9765 39.8422C37.9097 42.9089 32.9751 42.9089 23.1042 42.9089H20.939C11.0681 42.9089 6.13343 42.9089 3.06672 39.8422C0 36.7771 0 31.8408 0 21.9699V19.8047Z" fill="#42565A"/>
<path fill-rule="evenodd" clip-rule="evenodd" d="M48.8804 15.1623C49.5296 13.0619 49.8799 10.8303 49.8799 8.51744C49.8799 -3.8889 39.823 -13.9458 27.4183 -13.9458C15.0136 -13.9458 4.95508 -3.8889 4.95508 8.51744C4.95508 20.1168 13.7468 29.6624 25.029 30.8545V37.4047C36.7729 35.4936 46.1806 26.6222 48.882 15.1623H48.8804Z" fill="white"/>
<path fill-rule="evenodd" clip-rule="evenodd" d="M18.3714 11.8058C18.3714 9.92462 16.8472 8.40039 14.966 8.40039C13.0848 8.40039 11.5605 9.92462 11.5605 11.8058C11.5605 13.687 13.0848 15.2113 14.966 15.2113C16.8472 15.2113 18.3714 13.687 18.3714 11.8058Z" fill="#303F42"/>
<path fill-rule="evenodd" clip-rule="evenodd" d="M28.5902 11.8058C28.5902 9.92462 27.0659 8.40039 25.1847 8.40039C23.3035 8.40039 21.7793 9.92462 21.7793 11.8058C21.7793 13.687 23.3035 15.2113 25.1847 15.2113C27.0659 15.2113 28.5902 13.687 28.5902 11.8058Z" fill="#303F42"/>
<path fill-rule="evenodd" clip-rule="evenodd" d="M38.805 11.8058C38.805 9.92462 37.2808 8.40039 35.3996 8.40039C33.5184 8.40039 31.9941 9.92462 31.9941 11.8058C31.9941 13.687 33.5184 15.2113 35.3996 15.2113C37.2808 15.2113 38.805 13.687 38.805 11.8058Z" fill="#303F42"/>
</g>
</g>
<defs>
<clipPath id="clip0_120_2680">
<path d="M0 0H35.762C40.3117 0 44 3.68829 44 8.23803V42.8377H0V0Z" fill="white"/>
</clipPath>
</defs>
</svg>
